<svg width="30" height="30" viewBox="0 0 30 30" fill="none" xmlns="http://www.w3.org/2000/svg">
<path fill-rule="evenodd" clip-rule="evenodd" d="M19.9052 5.52291C16.6638 4.9795 13.3361 4.9795 10.0947 5.52291C9.48473 5.62518 9.00024 6.09384 8.87864 6.69751C7.7723 12.19 7.71193 17.8419 8.70071 23.3567L8.90515 24.4969L13.4933 20.1382C14.3376 19.3361 15.6623 19.3361 16.5066 20.1382L21.0948 24.4969L21.2992 23.3567C22.288 17.8419 22.2276 12.19 21.1213 6.69751C20.9997 6.09384 20.5152 5.62518 19.9052 5.52291ZM9.78472 3.67372C13.2314 3.0959 16.7685 3.0959 20.2152 3.67372C21.5892 3.90407 22.6837 4.95884 22.9593 6.32727C24.1123 12.0509 24.1752 17.9407 23.1448 23.6876L22.8679 25.2318C22.6355 26.5278 21.0555 27.0458 20.1009 26.1389L15.2152 21.4976C15.0946 21.383 14.9053 21.383 14.7847 21.4976L9.89905 26.1389C8.94443 27.0458 7.36438 26.5278 7.132 25.2318L6.85514 23.6876C5.82475 17.9407 5.88765 12.0509 7.04056 6.32727C7.3162 4.95884 8.4107 3.90407 9.78472 3.67372Z" fill="black"/>
</svg>
