<svg width="25" height="25" viewBox="0 0 25 25" fill="none" xmlns="http://www.w3.org/2000/svg">
<path d="M15.45 15.2875C14.6144 15.9612 13.5734 16.3286 12.5 16.3286C11.4266 16.3286 10.3856 15.9612 9.55 15.2875C9.29473 15.0753 8.96563 14.9732 8.6351 15.0037C8.30457 15.0342 7.99968 15.1947 7.7875 15.45C7.57533 15.7053 7.47325 16.0344 7.50373 16.3649C7.5342 16.6954 7.69473 17.0003 7.95 17.2125C9.22668 18.2783 10.837 18.862 12.5 18.862C14.1631 18.862 15.7733 18.2783 17.05 17.2125C17.3053 17.0003 17.4658 16.6954 17.4963 16.3649C17.5268 16.0344 17.4247 15.7053 17.2125 15.45C17.1074 15.3236 16.9785 15.2191 16.8331 15.1426C16.6877 15.066 16.5286 15.0188 16.3649 15.0037C16.0344 14.9732 15.7053 15.0753 15.45 15.2875ZM8.75 11.25C8.99723 11.25 9.23891 11.1767 9.44447 11.0393C9.65003 10.902 9.81024 10.7068 9.90485 10.4784C9.99946 10.2499 10.0242 9.99861 9.97599 9.75613C9.92775 9.51366 9.8087 9.29093 9.63389 9.11611C9.45907 8.9413 9.23634 8.82225 8.99387 8.77402C8.75139 8.72578 8.50006 8.75054 8.27165 8.84515C8.04324 8.93976 7.84802 9.09997 7.71067 9.30553C7.57332 9.5111 7.5 9.75277 7.5 10C7.5 10.3315 7.6317 10.6495 7.86612 10.8839C8.10054 11.1183 8.41848 11.25 8.75 11.25ZM16.25 8.75C16.0028 8.75 15.7611 8.82331 15.5555 8.96066C15.35 9.09801 15.1898 9.29324 15.0952 9.52164C15.0005 9.75005 14.9758 10.0014 15.024 10.2439C15.0723 10.4863 15.1913 10.7091 15.3661 10.8839C15.5409 11.0587 15.7637 11.1777 16.0061 11.226C16.2486 11.2742 16.5 11.2495 16.7284 11.1548C16.9568 11.0602 17.152 10.9 17.2893 10.6945C17.4267 10.4889 17.5 10.2472 17.5 10C17.5 9.66848 17.3683 9.35053 17.1339 9.11611C16.8995 8.88169 16.5815 8.75 16.25 8.75ZM12.5 0C10.0277 0 7.61099 0.733112 5.55538 2.10663C3.49976 3.48015 1.89761 5.43238 0.951511 7.71645C0.00541608 10.0005 -0.242126 12.5139 0.24019 14.9386C0.722505 17.3634 1.91301 19.5907 3.66117 21.3388C5.40933 23.087 7.63661 24.2775 10.0614 24.7598C12.4861 25.2421 14.9995 24.9946 17.2835 24.0485C19.5676 23.1024 21.5199 21.5002 22.8934 19.4446C24.2669 17.389 25 14.9723 25 12.5C25 10.8585 24.6767 9.23302 24.0485 7.71645C23.4203 6.19988 22.4996 4.8219 21.3388 3.66116C20.1781 2.50043 18.8001 1.57969 17.2835 0.951506C15.767 0.323322 14.1415 0 12.5 0ZM12.5 22.5C10.5222 22.5 8.58879 21.9135 6.9443 20.8147C5.29981 19.7159 4.01809 18.1541 3.26121 16.3268C2.50433 14.4996 2.3063 12.4889 2.69215 10.5491C3.078 8.60928 4.03041 6.82746 5.42894 5.42893C6.82746 4.03041 8.60929 3.078 10.5491 2.69215C12.4889 2.30629 14.4996 2.50433 16.3268 3.2612C18.1541 4.01808 19.7159 5.2998 20.8147 6.9443C21.9135 8.58879 22.5 10.5222 22.5 12.5C22.5 15.1522 21.4464 17.6957 19.5711 19.5711C17.6957 21.4464 15.1522 22.5 12.5 22.5Z" fill="#37B7FF"/>
</svg>
