<svg width="30" height="30" viewBox="0 0 30 30" fill="none" xmlns="http://www.w3.org/2000/svg">
<path fill-rule="evenodd" clip-rule="evenodd" d="M3.50455 10.4416C3.15437 13.6952 3.16998 17.4477 3.65726 20.6881C3.92688 22.4811 5.39022 23.8557 7.19655 24.0127L9.08435 24.1768C13.0207 24.519 16.9792 24.519 20.9155 24.1768L22.8033 24.0127C24.6097 23.8557 26.073 22.4811 26.3426 20.6881C26.8299 17.4477 26.8455 13.6954 26.4954 10.4418C26.4501 10.0646 26.3992 9.68792 26.3426 9.31186C26.073 7.51887 24.6097 6.14431 22.8033 5.98729L20.9155 5.82319C16.9792 5.48101 13.0207 5.48102 9.08434 5.82319L7.19655 5.98729C5.39022 6.14431 3.92688 7.51887 3.65726 9.31186C3.60072 9.68786 3.54981 10.0645 3.50455 10.4416ZM9.24672 7.69115C13.075 7.35836 16.9249 7.35836 20.7532 7.69115L22.6409 7.85525C23.5839 7.93721 24.3477 8.65474 24.4885 9.59068C24.5031 9.68788 24.5173 9.78512 24.5311 9.8824L17.5799 13.7442C15.9754 14.6356 14.0244 14.6356 12.4199 13.7442L5.46875 9.88245C5.48257 9.78515 5.49679 9.68789 5.51141 9.59068C5.65216 8.65474 6.41602 7.93721 7.35893 7.85525L9.24672 7.69115ZM24.7606 11.8999C25.003 14.7345 24.9123 17.5906 24.4885 20.4093C24.3477 21.3453 23.5839 22.0628 22.641 22.1447L20.7532 22.3088C16.9249 22.6416 13.075 22.6416 9.24672 22.3088L7.35893 22.1447C6.41602 22.0628 5.65216 21.3453 5.51141 20.4093C5.08755 17.5906 4.99685 14.7346 5.23931 11.8999L11.5093 15.3833C13.6801 16.5892 16.3197 16.5892 18.4905 15.3833L24.7606 11.8999Z" fill="#292929"/>
</svg>
