<svg width="42" height="44" viewBox="0 0 42 44" fill="none" xmlns="http://www.w3.org/2000/svg">
<g filter="url(#filter0_d)">
<path fill-rule="evenodd" clip-rule="evenodd" d="M22.9474 12.9178C21.8591 11.8736 20.141 11.8736 19.0528 12.9178L13.2698 18.467C13.1281 18.603 13.0328 18.7801 12.9973 18.9732C12.3047 22.7505 12.2535 26.6176 12.8461 30.4119L12.9867 31.3125H16.7073V23.5483C16.7073 23.0306 17.127 22.6108 17.6448 22.6108H24.3553C24.8731 22.6108 25.2928 23.0306 25.2928 23.5483V31.3125H29.0134L29.1541 30.4119C29.7466 26.6176 29.6955 22.7505 29.0028 18.9732C28.9674 18.7801 28.8721 18.603 28.7304 18.467L22.9474 12.9178ZM17.7546 11.5649C19.5683 9.82459 22.4319 9.82459 24.2455 11.5649L30.0286 17.1141C30.4543 17.5226 30.7407 18.0547 30.8471 18.635C31.5777 22.6195 31.6317 26.6987 31.0066 30.7012L30.7807 32.148C30.6872 32.7464 30.1719 33.1875 29.5662 33.1875H24.3553C23.8376 33.1875 23.4178 32.7678 23.4178 32.25V24.4858H18.5823V32.25C18.5823 32.7678 18.1626 33.1875 17.6448 33.1875H12.4339C11.8283 33.1875 11.3129 32.7464 11.2195 32.148L10.9935 30.7012C10.3685 26.6987 10.4224 22.6196 11.1531 18.635C11.2595 18.0547 11.5459 17.5226 11.9716 17.1141L17.7546 11.5649Z" fill="#292929"/>
</g>
<defs>
<filter id="filter0_d" x="-4" y="-4" width="50" height="50" filterUnits="userSpaceOnUse" color-interpolation-filters="sRGB">
<feFlood flood-opacity="0" result="BackgroundImageFix"/>
<feColorMatrix in="SourceAlpha" type="matrix" values="0 0 0 0 0 0 0 0 0 0 0 0 0 0 0 0 0 0 127 0" result="hardAlpha"/>
<feOffset/>
<feGaussianBlur stdDeviation="5"/>
<feComposite in2="hardAlpha" operator="out"/>
<feColorMatrix type="matrix" values="0 0 0 0 1 0 0 0 0 1 0 0 0 0 1 0 0 0 0.9 0"/>
<feBlend mode="normal" in2="BackgroundImageFix" result="effect1_dropShadow"/>
<feBlend mode="normal" in="SourceGraphic" in2="effect1_dropShadow" result="shape"/>
</filter>
</defs>
</svg>
