<svg width="22" height="27" viewBox="0 0 22 27" fill="none" xmlns="http://www.w3.org/2000/svg">
<path fill-rule="evenodd" clip-rule="evenodd" d="M5.06253 11.5C5.06253 8.22081 7.72084 5.5625 11 5.5625C14.2792 5.5625 16.9375 8.22081 16.9375 11.5C16.9375 14.7792 14.2792 17.4375 11 17.4375C7.72084 17.4375 5.06253 14.7792 5.06253 11.5ZM11 7.4375C8.75637 7.4375 6.93753 9.25634 6.93753 11.5C6.93753 13.7437 8.75637 15.5625 11 15.5625C13.2437 15.5625 15.0625 13.7437 15.0625 11.5C15.0625 9.25634 13.2437 7.4375 11 7.4375Z" fill="black" fill-opacity="0.65"/>
<path fill-rule="evenodd" clip-rule="evenodd" d="M0.405485 10.0711C0.848394 4.6978 5.33858 0.5625 10.7301 0.5625H11.27C16.6615 0.5625 21.1517 4.6978 21.5946 10.0711C21.8325 12.9575 20.9409 15.8236 19.1076 18.0657L13.1163 25.3929C12.0225 26.7306 9.97757 26.7306 8.88381 25.393L2.89249 18.0657C1.05916 15.8236 0.167562 12.9575 0.405485 10.0711ZM10.7301 2.4375C6.3144 2.4375 2.63689 5.82435 2.27415 10.2251C2.07613 12.6274 2.81819 15.0128 4.34401 16.8788L10.3353 24.2061C10.6789 24.6262 11.3212 24.6262 11.6647 24.2061L17.6561 16.8788C19.1819 15.0128 19.9239 12.6274 19.7259 10.2251C19.3632 5.82435 15.6857 2.4375 11.27 2.4375H10.7301Z" fill="black" fill-opacity="0.65"/>
</svg>
