<svg width="30" height="30" viewBox="0 0 30 30" fill="none" xmlns="http://www.w3.org/2000/svg">
<path d="M8.03612 3.01627C8.37657 2.62617 8.33633 2.03395 7.94623 1.69349C7.55614 1.35304 6.96391 1.39328 6.62346 1.78338L5.0087 3.63359C4.09275 4.6831 3.57496 6.02124 3.54591 7.41394L3.47506 10.811C3.46427 11.3287 3.87516 11.7571 4.39281 11.7679C4.91046 11.7786 5.33886 11.3678 5.34965 10.8501L5.4205 7.45303C5.44038 6.50014 5.79465 5.58457 6.42136 4.86648L8.03612 3.01627Z" fill="#292929"/>
<path fill-rule="evenodd" clip-rule="evenodd" d="M7.79637 9.62599C7.96999 6.85008 10.272 4.68756 13.0533 4.68756H13.7501V3.75006C13.7501 3.05971 14.3097 2.50006 15.0001 2.50006C15.6905 2.50006 16.2501 3.05971 16.2501 3.75006V4.68756H16.9469C19.7282 4.68756 22.0302 6.85008 22.2038 9.62599L22.4801 14.0428C22.5854 15.7268 23.1508 17.3496 24.1146 18.7345C24.9854 19.9859 24.2102 21.7141 22.6965 21.8957L18.4376 22.4068V23.7501C18.4376 25.6485 16.8986 27.1876 15.0001 27.1876C13.1016 27.1876 11.5626 25.6485 11.5626 23.7501V22.4068L7.30369 21.8957C5.79003 21.7141 5.01475 19.9859 5.8856 18.7345C6.84943 17.3496 7.41479 15.7268 7.52012 14.0428L7.79637 9.62599ZM13.0533 6.56256C11.2621 6.56256 9.77953 7.95528 9.66771 9.74304L9.39146 14.1599C9.26472 16.1863 8.5844 18.1391 7.42459 19.8056C7.36165 19.896 7.41768 20.0209 7.52709 20.0341L12.1992 20.5947C14.0598 20.818 15.9404 20.818 17.801 20.5947L22.4731 20.0341C22.5825 20.0209 22.6385 19.896 22.5756 19.8056C21.4158 18.1391 20.7355 16.1863 20.6087 14.1599L20.3325 9.74304C20.2207 7.95528 18.7381 6.56256 16.9469 6.56256H13.0533ZM15.0001 25.3126C14.1372 25.3126 13.4376 24.613 13.4376 23.7501V22.8126H16.5626V23.7501C16.5626 24.613 15.863 25.3126 15.0001 25.3126Z" fill="#292929"/>
<path d="M22.054 1.69349C21.6639 2.03395 21.6236 2.62617 21.9641 3.01627L23.5788 4.86648C24.2055 5.58457 24.5598 6.50014 24.5797 7.45303L24.6505 10.8501C24.6613 11.3678 25.0897 11.7786 25.6074 11.7679C26.125 11.7571 26.5359 11.3287 26.5251 10.811L26.4543 7.41394C26.4252 6.02124 25.9075 4.6831 24.9915 3.63359L23.3767 1.78338C23.0363 1.39328 22.4441 1.35304 22.054 1.69349Z" fill="#292929"/>
</svg>
