<svg width="30" height="30" viewBox="0 0 30 30" fill="none" xmlns="http://www.w3.org/2000/svg">
<path fill-rule="evenodd" clip-rule="evenodd" d="M5.73978 19.1303C2.92995 12.2334 8.00383 4.6875 15.4511 4.6875H15.8529C21.4224 4.6875 25.9374 9.20251 25.9374 14.7721C25.9374 20.9731 20.9105 26 14.7095 26H4.93413C4.53631 26 4.18181 25.7489 4.04978 25.3736C3.91774 24.9984 4.03693 24.5806 4.34711 24.3315L6.81147 22.3524C6.91922 22.2659 6.95734 22.1189 6.9052 21.9909L5.73978 19.1303ZM15.4511 6.5625C9.33543 6.5625 5.16878 12.7592 7.4762 18.4229L8.64162 21.2834C9.00662 22.1793 8.7398 23.2086 7.98553 23.8144L7.59872 24.125H14.7095C19.875 24.125 24.0624 19.9375 24.0624 14.7721C24.0624 10.238 20.3869 6.5625 15.8529 6.5625H15.4511Z" fill="black" fill-opacity="0.65"/>
</svg>
