<svg width="30" height="30" viewBox="0 0 30 30" fill="none" xmlns="http://www.w3.org/2000/svg">
<path fill-rule="evenodd" clip-rule="evenodd" d="M15.0001 3.84899L12.2341 6.71086C11.9397 7.01548 11.5342 7.18749 11.1106 7.18749H7.18758V11.1105C7.18758 11.5341 7.01557 11.9396 6.71096 12.234L3.84908 15L6.71096 17.766C7.01557 18.0604 7.18758 18.4659 7.18758 18.8895V22.8125H11.1106C11.5342 22.8125 11.9397 22.9845 12.2341 23.2891L15.0001 26.151L17.7661 23.2891C18.0605 22.9845 18.466 22.8125 18.8896 22.8125H22.8126V18.8895C22.8126 18.4659 22.9846 18.0604 23.2892 17.766L26.1511 15L23.2892 12.234C22.9846 11.9396 22.8126 11.5341 22.8126 11.1105V7.18749H18.8896C18.466 7.18749 18.0605 7.01548 17.7661 6.71086L15.0001 3.84899ZM13.8766 2.31345C14.4908 1.67795 15.5094 1.67795 16.1236 2.31345L19.0222 5.31249H23.1251C23.988 5.31249 24.6876 6.01205 24.6876 6.87499V10.9779L27.6866 13.8765C28.3221 14.4907 28.3221 15.5093 27.6866 16.1235L24.6876 19.0221V23.125C24.6876 23.9879 23.988 24.6875 23.1251 24.6875H19.0222L16.1236 27.6865C15.5094 28.322 14.4908 28.322 13.8766 27.6865L10.978 24.6875H6.87508C6.01214 24.6875 5.31258 23.9879 5.31258 23.125V19.0221L2.31354 16.1235C1.67804 15.5093 1.67804 14.4907 2.31354 13.8765L5.31258 10.9779V6.87499C5.31258 6.01204 6.01214 5.31249 6.87508 5.31249H10.978L13.8766 2.31345Z" fill="black"/>
<path fill-rule="evenodd" clip-rule="evenodd" d="M9.06258 15C9.06258 11.7208 11.7209 9.06249 15.0001 9.06249C18.2793 9.06249 20.9376 11.7208 20.9376 15C20.9376 18.2792 18.2793 20.9375 15.0001 20.9375C11.7209 20.9375 9.06258 18.2792 9.06258 15ZM15.0001 10.9375C12.7564 10.9375 10.9376 12.7563 10.9376 15C10.9376 17.2436 12.7564 19.0625 15.0001 19.0625C17.2437 19.0625 19.0626 17.2436 19.0626 15C19.0626 12.7563 17.2437 10.9375 15.0001 10.9375Z" fill="black"/>
</svg>
