<svg width="30" height="30" viewBox="0 0 30 30" fill="none" xmlns="http://www.w3.org/2000/svg">
<path fill-rule="evenodd" clip-rule="evenodd" d="M13.4224 20.7841C12.4553 20.7841 11.6487 20.045 11.5642 19.0817C11.3877 17.0676 11.343 15.0445 11.4303 13.0254C11.3249 13.0184 11.2195 13.011 11.1142 13.0033L9.25222 12.8676C8.06216 12.7808 7.3969 11.4539 8.03939 10.4484C9.40962 8.30399 11.9212 5.90393 13.988 4.41926C14.5927 3.98483 15.4073 3.98483 16.0121 4.41926C18.0789 5.90393 20.5904 8.30399 21.9607 10.4484C22.6031 11.4539 21.9379 12.7808 20.7478 12.8676L18.8859 13.0033C18.7805 13.011 18.6751 13.0183 18.5697 13.0254C18.657 15.0445 18.6123 17.0676 18.4358 19.0817C18.3513 20.045 17.5447 20.7841 16.5777 20.7841H13.4224ZM13.3519 12.2032C13.2097 14.4372 13.2363 16.6789 13.4313 18.9091H16.5687C16.7638 16.6789 16.7903 14.4372 16.6482 12.2032C16.6323 11.9527 16.7174 11.7063 16.8846 11.5191C17.0518 11.332 17.287 11.2196 17.5377 11.2073C17.9418 11.1874 18.3458 11.1627 18.7496 11.1333L20.1018 11.0347C18.9024 9.26807 17.4005 7.72525 15.6641 6.47794L15 6.00088L14.3359 6.47794C12.5995 7.72525 11.0977 9.26807 9.89822 11.0347L11.2505 11.1333C11.6542 11.1627 12.0582 11.1874 12.4624 11.2073C12.713 11.2196 12.9483 11.332 13.1155 11.5191C13.2826 11.7063 13.3678 11.9527 13.3519 12.2032Z" fill="black" fill-opacity="0.65"/>
<path d="M7.1875 21.25C7.1875 20.7322 6.76777 20.3125 6.25 20.3125C5.73223 20.3125 5.3125 20.7322 5.3125 21.25V23.75C5.3125 24.9581 6.29188 25.9375 7.5 25.9375H22.5C23.7081 25.9375 24.6875 24.9581 24.6875 23.75V21.25C24.6875 20.7322 24.2678 20.3125 23.75 20.3125C23.2322 20.3125 22.8125 20.7322 22.8125 21.25V23.75C22.8125 23.9226 22.6726 24.0625 22.5 24.0625H7.5C7.32741 24.0625 7.1875 23.9226 7.1875 23.75V21.25Z" fill="black" fill-opacity="0.65"/>
</svg>
