<svg width="30" height="30" viewBox="0 0 30 30" fill="none" xmlns="http://www.w3.org/2000/svg">
<path d="M17.5 11.25C17.5 10.2145 18.3395 9.375 19.375 9.375C20.4105 9.375 21.25 10.2145 21.25 11.25C21.25 12.2855 20.4105 13.125 19.375 13.125C18.3395 13.125 17.5 12.2855 17.5 11.25Z" fill="#37B7FF"/>
<path fill-rule="evenodd" clip-rule="evenodd" d="M9.08443 5.82319C13.0207 5.48102 16.9793 5.48101 20.9156 5.82319L22.8034 5.98729C24.6097 6.14431 26.0731 7.51887 26.3427 9.31186C26.9098 13.0828 26.9098 16.9172 26.3427 20.6881C26.0731 22.4811 24.6097 23.8557 22.8034 24.0127L20.9156 24.1768C16.9793 24.519 13.0207 24.519 9.08443 24.1768L7.19664 24.0127C5.39031 23.8557 3.92697 22.4811 3.65734 20.6881C3.09029 16.9172 3.09029 13.0828 3.65734 9.31186C3.92697 7.51887 5.3903 6.14431 7.19664 5.98729L9.08443 5.82319ZM20.7532 7.69115C16.925 7.35836 13.0751 7.35836 9.24681 7.69115L7.35902 7.85525C6.41611 7.93721 5.65224 8.65474 5.5115 9.59068C5.18958 11.7315 5.05983 13.8938 5.12227 16.0519L9.9621 11.2121C10.1447 11.0295 10.3945 10.9303 10.6525 10.9379C10.9106 10.9455 11.1542 11.0592 11.3257 11.2522L15.915 16.4151L19.0785 15.3606C19.4323 15.2427 19.8224 15.3457 20.0718 15.6228L24.4708 20.5105C24.4775 20.4771 24.4834 20.4433 24.4886 20.4093C25.0278 16.8233 25.0278 13.1767 24.4886 9.59068C24.3478 8.65474 23.5839 7.93721 22.641 7.85525L20.7532 7.69115ZM23.2752 21.985L19.0889 17.3336L15.9215 18.3894C15.5657 18.508 15.1735 18.4031 14.9243 18.1228L10.5849 13.241L5.28026 18.5456C5.34124 19.1682 5.41832 19.7897 5.5115 20.4093C5.65224 21.3453 6.41611 22.0628 7.35902 22.1447L9.24681 22.3088C13.0751 22.6416 16.925 22.6416 20.7532 22.3088L22.641 22.1447C22.8645 22.1253 23.0778 22.0702 23.2752 21.985Z" fill="#37B7FF"/>
</svg>
